<?xml version="1.0" encoding="UTF-8" standalone="no"?>
<svg
   role="img"
   viewBox="0 0 24 24"
   version="1.1"
   id="svg1"
   sodipodi:docname="docker-white.svg"
   inkscape:version="1.4 (e7c3feb1, 2024-10-09)"
   xmlns:inkscape="http://www.inkscape.org/namespaces/inkscape"
   xmlns:sodipodi="http://sodipodi.sourceforge.net/DTD/sodipodi-0.dtd"
   xmlns="http://www.w3.org/2000/svg"
   xmlns:svg="http://www.w3.org/2000/svg"
   xmlns:rdf="http://www.w3.org/1999/02/22-rdf-syntax-ns#"
   xmlns:cc="http://creativecommons.org/ns#"
   xmlns:dc="http://purl.org/dc/elements/1.1/">
  <defs
     id="defs1" />
  <sodipodi:namedview
     id="namedview1"
     pagecolor="#505050"
     bordercolor="#ffffff"
     borderopacity="1"
     inkscape:showpageshadow="0"
     inkscape:pageopacity="0"
     inkscape:pagecheckerboard="1"
     inkscape:deskcolor="#505050"
     showgrid="false"
     inkscape:zoom="38.416667"
     inkscape:cx="11.986985"
     inkscape:cy="12"
     inkscape:window-width="2048"
     inkscape:window-height="1099"
     inkscape:window-x="0"
     inkscape:window-y="25"
     inkscape:window-maximized="1"
     inkscape:current-layer="svg1" />
  <title
     id="title1">Docker</title>
  <path
     d="M13.983 11.078h2.119a.186.186 0 00.186-.185V9.006a.186.186 0 00-.186-.186h-2.119a.185.185 0 00-.185.185v1.888c0 .102.083.185.185.185m-2.954-5.43h2.118a.186.186 0 00.186-.186V3.574a.186.186 0 00-.186-.185h-2.118a.185.185 0 00-.185.185v1.888c0 .102.082.185.185.185m0 2.716h2.118a.187.187 0 00.186-.186V6.29a.186.186 0 00-.186-.185h-2.118a.185.185 0 00-.185.185v1.887c0 .102.082.185.185.186m-2.93 0h2.12a.186.186 0 00.184-.186V6.29a.185.185 0 00-.185-.185H8.1a.185.185 0 00-.185.185v1.887c0 .102.083.185.185.186m-2.964 0h2.119a.186.186 0 00.185-.186V6.29a.185.185 0 00-.185-.185H5.136a.186.186 0 00-.186.185v1.887c0 .102.084.185.186.186m5.893 2.715h2.118a.186.186 0 00.186-.185V9.006a.186.186 0 00-.186-.186h-2.118a.185.185 0 00-.185.185v1.888c0 .102.082.185.185.185m-2.93 0h2.12a.185.185 0 00.184-.185V9.006a.185.185 0 00-.184-.186h-2.12a.185.185 0 00-.184.185v1.888c0 .102.083.185.185.185m-2.964 0h2.119a.185.185 0 00.185-.185V9.006a.185.185 0 00-.184-.186h-2.12a.186.186 0 00-.186.186v1.887c0 .102.084.185.186.185m-2.92 0h2.12a.185.185 0 00.184-.185V9.006a.185.185 0 00-.184-.186h-2.12a.185.185 0 00-.184.185v1.888c0 .102.082.185.185.185M23.763 9.89c-.065-.051-.672-.51-1.954-.51-.338.001-.676.03-1.01.087-.248-1.7-1.653-2.53-1.716-2.566l-.344-.199-.226.327c-.284.438-.49.922-.612 1.43-.23.97-.09 1.882.403 2.661-.595.332-1.55.413-1.744.42H.751a.751.751 0 00-.75.748 11.376 11.376 0 00.692 4.062c.545 1.428 1.355 2.48 2.41 3.124 1.18.723 3.1 1.137 5.275 1.137.983.003 1.963-.086 2.93-.266a12.248 12.248 0 003.823-1.389c.98-.567 1.86-1.288 2.61-2.136 1.252-1.418 1.998-2.997 2.553-4.4h.221c1.372 0 2.215-.549 2.68-1.009.309-.293.55-.65.707-1.046l.098-.288Z"
     id="path1" />
  <path
     style="fill:#ffffff;stroke-width:0.0260304"
     d="M 7.2494577,20.562303 C 5.6451944,20.436021 4.2227047,20.081126 3.318872,19.581666 2.0678675,18.890359 1.1133346,17.629233 0.57387592,15.954986 0.20858645,14.821285 0.03036096,13.739281 0.02746666,12.637744 L 0.02603036,12.091106 0.10292278,11.952294 C 0.18691438,11.800665 0.27482756,11.71591 0.4394845,11.627823 l 0.10715323,-0.05732 8.17353577,-0.01419 8.1735355,-0.01419 0.29935,-0.05745 c 0.375537,-0.07207 0.796841,-0.19451 0.971975,-0.282469 0.07387,-0.0371 0.137172,-0.06988 0.140664,-0.07284 0.0035,-0.003 -0.05831,-0.132646 -0.137342,-0.288186 -0.159619,-0.314145 -0.253971,-0.595977 -0.31504,-0.9410412 -0.06105,-0.3449641 -0.03615,-1.0234749 0.05094,-1.3881902 0.133801,-0.5602984 0.361379,-1.0844557 0.670574,-1.5444663 l 0.167033,-0.2485049 0.117136,0.066987 c 0.682153,0.3901051 1.274514,0.9995998 1.600027,1.6463083 0.114402,0.2272884 0.235481,0.5752788 0.287084,0.8251011 0.02308,0.1117462 0.04619,0.2073956 0.05135,0.2125545 0.0052,0.00516 0.10116,-0.00582 0.213336,-0.024396 0.313156,-0.051859 1.289967,-0.045725 1.587097,0.00997 0.497361,0.093221 0.885907,0.2501721 1.205084,0.4867877 l 0.180193,0.133583 -0.05948,0.174656 c -0.298243,0.875761 -1.103521,1.635391 -2.071195,1.953786 -0.31944,0.105105 -0.638452,0.160232 -1.107127,0.191315 l -0.469382,0.03113 -0.100552,0.24867 c -0.457142,1.130537 -1.080073,2.311411 -1.633389,3.096372 -1.106085,1.569146 -2.36985,2.663203 -4.017099,3.477653 -1.457781,0.720771 -2.74331,1.079064 -4.5813451,1.276879 -0.4598189,0.04949 -2.2233892,0.07305 -2.6941432,0.03599 z"
     id="path2" />
  <path
     style="fill:#ffffff;stroke-width:0.0260304"
     d="M 2.0999821,11.002661 C 2.043909,10.942974 2.0433839,10.933183 2.0433839,9.9472476 V 8.9520805 l 0.064697,-0.064697 0.064697,-0.064697 1.1187766,0.00731 c 1.0333616,0.00675 1.1223238,0.010859 1.165238,0.053769 0.042706,0.042702 0.047058,0.1270127 0.053841,1.0431028 0.00725,0.9795897 0.00644,0.9978377 -0.047442,1.0663407 l -0.054823,0.0697 H 3.2824746 2.1565803 Z"
     id="path3" />
  <path
     style="fill:#ffffff;stroke-width:0.0260304"
     d="m 5.0127353,10.99432 c -0.052425,-0.06665 -0.05395,-0.09648 -0.05395,-1.0554127 V 8.9520805 l 0.063893,-0.063893 0.063893,-0.063893 h 1.1086571 1.108657 l 0.063893,0.063893 0.063893,0.063893 v 0.9868268 c 0,0.9589307 -0.00153,0.9887657 -0.05395,1.0554127 l -0.05395,0.06859 H 6.1952278 5.0666853 Z"
     id="path4" />
  <path
     style="fill:#ffffff;stroke-width:0.0260304"
     d="M 5.022678,8.2918557 4.9587852,8.2279629 V 7.2411361 c 0,-0.958931 0.00153,-0.9887656 0.05395,-1.0554131 l 0.05395,-0.068586 h 1.1285425 1.1285424 l 0.05395,0.068586 c 0.052425,0.066647 0.05395,0.096482 0.05395,1.0554131 v 0.9868268 l -0.063893,0.063893 -0.063893,0.063893 H 6.1952278 5.0865707 Z"
     id="path5" />
  <path
     style="fill:#ffffff;stroke-width:0.0260304"
     d="M 7.99014,8.2918557 7.9262473,8.2279629 V 7.229148 6.2303331 l 0.060246,-0.056598 c 0.059916,-0.056288 0.066347,-0.056598 1.1725498,-0.056598 h 1.1123039 l 0.06478,0.064779 0.06478,0.064779 -0.0074,1.0047875 -0.0074,1.0047874 -0.06145,0.04974 C 10.266317,8.353229 10.207232,8.35575 9.1586148,8.35575 H 8.0540327 Z"
     id="path6" />
  <path
     style="fill:#ffffff;stroke-width:0.0260304"
     d="m 7.9828455,11.002661 c -0.056073,-0.05969 -0.056598,-0.06948 -0.056598,-1.0554134 V 8.9520805 l 0.064697,-0.064697 0.064697,-0.064697 1.1187766,0.00731 c 1.0333619,0.00675 1.1223239,0.010859 1.1652389,0.053769 0.04271,0.042702 0.04706,0.1270127 0.05384,1.0431028 0.0073,0.9795897 0.0064,0.9978377 -0.04744,1.0663407 l -0.05482,0.0697 H 9.165338 8.0394437 Z"
     id="path7" />
  <path
     style="fill:#ffffff;stroke-width:0.0260304"
     d="m 10.925532,11.022385 -0.05785,-0.04052 3.99e-4,-1.0202164 c 2.19e-4,-0.5611188 0.009,-1.0331044 0.01952,-1.048857 0.05497,-0.082331 0.13935,-0.088496 1.2113,-0.088496 1.051635,0 1.080167,0.00134 1.147047,0.05395 l 0.06859,0.05395 v 1.0132951 c 0,0.9785883 -0.0018,1.0150783 -0.05206,1.0653563 -0.05044,0.05044 -0.08677,0.05206 -1.165575,0.05206 -0.965688,0 -1.121194,-0.0054 -1.171366,-0.04052 z"
     id="path8" />
  <path
     style="fill:#ffffff;stroke-width:0.0260304"
     d="m 13.865709,11.002661 c -0.05607,-0.05969 -0.0566,-0.06948 -0.0566,-1.0554134 V 8.9520805 l 0.0647,-0.064697 0.0647,-0.064697 1.122003,0.00731 1.122002,0.00731 0.04974,0.061452 c 0.04701,0.058072 0.04974,0.1155062 0.04974,1.0442119 0,0.9548166 -0.0015,0.9847096 -0.05395,1.0513456 l -0.05395,0.06859 h -1.125895 -1.125894 z"
     id="path9" />
  <path
     style="fill:#ffffff;stroke-width:0.0260304"
     d="M 10.9718,8.3376838 C 10.870294,8.3014063 10.867679,8.2733342 10.867679,7.2199282 V 6.1981798 l 0.05785,-0.040522 c 0.05017,-0.035142 0.205678,-0.040522 1.171366,-0.040522 1.078807,0 1.115137,0.00162 1.165575,0.052061 0.05028,0.050278 0.05206,0.086768 0.05206,1.0653558 v 1.0132951 l -0.06859,0.05395 c -0.06699,0.052696 -0.09376,0.053902 -1.151844,0.051895 -0.595791,-0.00113 -1.100828,-0.00833 -1.122303,-0.01601 z"
     id="path10" />
  <path
     style="fill:#ffffff;stroke-width:0.0260304"
     d="m 10.997831,5.6306786 c -0.02148,-0.0082 -0.05954,-0.03277 -0.0846,-0.054596 -0.04193,-0.03653 -0.04555,-0.120732 -0.04555,-1.0598141 0,-0.9552278 0.003,-1.0228717 0.0476,-1.0632108 0.04276,-0.0387 0.163023,-0.04308 1.182906,-0.04308 h 1.135302 l 0.04052,0.057853 c 0.03498,0.049937 0.04052,0.1954124 0.04052,1.0632107 0,0.9888382 -9e-4,1.0061729 -0.05476,1.0549456 -0.05181,0.046914 -0.113201,0.049857 -1.138829,0.054595 -0.596235,0.00275 -1.101634,-0.0017 -1.123109,-0.0099 z"
     id="path11" />
  <metadata
     id="metadata11">
    <rdf:RDF>
      <cc:Work
         rdf:about="">
        <dc:title>Docker</dc:title>
      </cc:Work>
    </rdf:RDF>
  </metadata>
</svg>
