<?xml version="1.0" encoding="UTF-8" standalone="no"?>
<svg
   role="img"
   viewBox="0 0 24 24"
   version="1.1"
   id="svg1"
   sodipodi:docname="git-white.svg"
   inkscape:version="1.4 (e7c3feb1, 2024-10-09)"
   xmlns:inkscape="http://www.inkscape.org/namespaces/inkscape"
   xmlns:sodipodi="http://sodipodi.sourceforge.net/DTD/sodipodi-0.dtd"
   xmlns="http://www.w3.org/2000/svg"
   xmlns:svg="http://www.w3.org/2000/svg"
   xmlns:rdf="http://www.w3.org/1999/02/22-rdf-syntax-ns#"
   xmlns:cc="http://creativecommons.org/ns#"
   xmlns:dc="http://purl.org/dc/elements/1.1/">
  <defs
     id="defs1" />
  <sodipodi:namedview
     id="namedview1"
     pagecolor="#505050"
     bordercolor="#ffffff"
     borderopacity="1"
     inkscape:showpageshadow="0"
     inkscape:pageopacity="0"
     inkscape:pagecheckerboard="1"
     inkscape:deskcolor="#505050"
     showgrid="false"
     inkscape:zoom="38.416667"
     inkscape:cx="11.986985"
     inkscape:cy="12"
     inkscape:window-width="2048"
     inkscape:window-height="1099"
     inkscape:window-x="0"
     inkscape:window-y="25"
     inkscape:window-maximized="1"
     inkscape:current-layer="svg1" />
  <title
     id="title1">Git</title>
  <path
     d="M23.546 10.93L13.067.452c-.604-.603-1.582-.603-2.188 0L8.708 2.627l2.76 2.76c.645-.215 1.379-.07 1.889.441.516.515.658 1.258.438 1.9l2.658 2.66c.645-.223 1.387-.078 1.9.435.721.72.721 1.884 0 2.604-.719.719-1.881.719-2.6 0-.539-.541-.674-1.337-.404-1.996L12.86 8.955v6.525c.176.086.342.203.488.348.713.721.713 1.883 0 2.6-.719.721-1.889.721-2.609 0-.719-.719-.719-1.879 0-2.598.182-.18.387-.316.605-.406V8.835c-.217-.091-.424-.222-.6-.401-.545-.545-.676-1.342-.396-2.009L7.636 3.7.45 10.881c-.6.605-.6 1.584 0 2.189l10.48 10.477c.604.604 1.582.604 2.186 0l10.43-10.43c.605-.603.605-1.582 0-2.187"
     id="path1" />
  <path
     style="fill:#ffffff;stroke-width:0.0260304"
     d="M 11.850892,23.969902 C 11.635757,23.948342 11.531428,23.915855 11.29718,23.797481 11.126167,23.711062 10.782059,23.372484 5.6984358,18.28871 0.4200746,13.010191 0.27945803,12.867037 0.18600007,12.67679 -0.03931451,12.218128 -0.0394179,11.740225 0.1856967,11.27451 0.27985132,11.079724 0.35200493,11.005519 3.9540812,7.3989511 l 3.672392,-3.676971 1.3486157,1.3486157 1.3486161,1.348616 -0.05926,0.20688 c -0.07628,0.2662821 -0.08247,0.7193352 -0.01333,0.973952 0.135688,0.4996295 0.477313,0.9293841 0.931036,1.1712156 l 0.154071,0.082119 v 3.2777706 3.277771 l -0.110629,0.05615 c -0.638608,0.324138 -1.034708,0.960722 -1.034708,1.662911 0,0.288663 0.06066,0.5402 0.200553,0.831704 0.09959,0.207515 0.153428,0.281378 0.343975,0.471925 0.190362,0.190362 0.264609,0.244508 0.471924,0.344158 0.332061,0.159611 0.579872,0.211122 0.933295,0.194001 0.580332,-0.02812 1.113613,-0.325602 1.44054,-0.803594 0.407283,-0.595479 0.407089,-1.481141 -4.54e-4,-2.077065 -0.124256,-0.181692 -0.384967,-0.429583 -0.552959,-0.52577 l -0.154197,-0.08829 -7.75e-4,-3.240596 -7.74e-4,-3.2405971 0.683298,0.6771439 C 13.931124,10.04343 14.4829,10.58906 14.78148,10.883514 l 0.542873,0.535369 -0.05738,0.229048 c -0.08048,0.321252 -0.06614,0.764976 0.03463,1.071298 0.29935,0.909969 1.303035,1.44392 2.242859,1.19318 0.878063,-0.234263 1.480616,-1.151306 1.342285,-2.042866 -0.06753,-0.435234 -0.221471,-0.738408 -0.535344,-1.054303 -0.445224,-0.448092 -1.087947,-0.632771 -1.709883,-0.491315 l -0.184368,0.04193 -1.324242,-1.3239292 c -0.922588,-0.92237 -1.319399,-1.335764 -1.308291,-1.362967 0.0088,-0.021475 0.03411,-0.1443199 0.05631,-0.2729886 C 13.981025,6.825934 13.782706,6.2373137 13.341148,5.8038586 13.128386,5.5950016 12.907998,5.461655 12.611714,5.3625129 12.370115,5.2816696 11.960403,5.2637383 11.675208,5.321526 L 11.456924,5.365756 10.088549,3.9970076 8.7201735,2.6282595 9.8915401,1.462011 C 10.941444,0.41669438 11.08205,0.28590325 11.247519,0.2006811 11.496404,0.07249765 11.694173,0.0245467 11.97397,0.0245467 c 0.279098,0 0.476799,0.04776952 0.72645,0.17552854 0.173232,0.0886516 0.518534,0.42839128 5.601421,5.51119146 5.3433,5.3432093 5.418108,5.4194113 5.512631,5.6153043 0.268433,0.55631 0.214624,1.145914 -0.14817,1.623537 -0.06525,0.0859 -2.500156,2.535578 -5.410906,5.443729 -4.690066,4.685877 -5.312401,5.298599 -5.469167,5.384684 -0.301965,0.165819 -0.594054,0.225583 -0.935337,0.191381 z"
     id="path2" />
  <metadata
     id="metadata2">
    <rdf:RDF>
      <cc:Work
         rdf:about="">
        <dc:title>Git</dc:title>
      </cc:Work>
    </rdf:RDF>
  </metadata>
</svg>
