<?xml version="1.0" encoding="UTF-8" standalone="no"?>
<svg
   role="img"
   viewBox="0 0 576 576"
   version="1.1"
   id="svg1"
   width="576"
   height="576"
   xmlns="http://www.w3.org/2000/svg"
   xmlns:svg="http://www.w3.org/2000/svg">
  <defs
     id="defs1" />
  <title
     id="title1">Linux Foundation</title>
  <path
     d="m 4.8,19.2 h 9.6 V 24 H 0 V 9.6 H 4.8 Z M 0,0 V 7.2 H 4.8 V 4.822 H 19.2 V 19.2 H 16.8 V 24 H 24 V 0 Z"
     id="path1" />
  <path
     style="fill:#ffffff;stroke-width:0.0260304"
     d="M 0.01301518,16.802603 V 9.6052061 H 2.3947939 4.7765727 v 4.8026029 4.802603 h 4.802603 4.8026033 V 21.605206 24 H 7.197397 0.01301518 Z"
     id="path2" />
  <path
     style="fill:#cccccc;stroke-width:0.0260304"
     d="m 16.802603,21.605206 v -2.394794 h 1.210412 1.210412 V 12.013015 4.8156182 H 12 4.7765727 V 6 7.1843818 H 2.3947939 0.01301518 V 3.5921909 0 H 12 23.986985 v 12 12 h -3.592191 -3.592191 z"
     id="path3" />
  <path
     style="fill:#cccccc;stroke-width:0.0260304"
     d="M 0.01301518,16.802603 V 9.6052061 H 2.3947939 4.7765727 v 4.8026029 4.802603 h 4.802603 4.8026033 V 21.605206 24 H 7.197397 0.01301518 Z"
     id="path4" />
  <path
     style="fill:#808080;stroke-width:0.0260304"
     d="m 16.802603,21.605206 v -2.394794 h 1.210412 1.210412 V 12.013015 4.8156182 H 12 4.7765727 V 6 7.1843818 H 2.3947939 0.01301518 V 3.5921909 0 H 12 23.986985 v 12 12 h -3.592191 -3.592191 z"
     id="path5" />
  <path
     style="fill:#1a1a1a;stroke-width:0.0260304"
     d="M 0.01301518,16.802603 V 9.6052061 H 2.3947939 4.7765727 v 4.8026029 4.802603 h 4.802603 4.8026033 V 21.605206 24 H 7.197397 0.01301518 Z"
     id="path6" />
  <path
     style="fill:#1a1a1a;stroke-width:0.0260304"
     d="M 0.01301518,16.802603 V 9.6052061 H 2.3947939 4.7765727 v 4.8026029 4.802603 h 4.802603 4.8026033 V 21.605206 24 H 7.197397 0.01301518 Z"
     id="path7" />
  <path
     style="fill:#1a1a1a;stroke-width:0.0260304"
     d="M 0.01301518,16.802603 V 9.6052061 H 2.3947939 4.7765727 v 4.8026029 4.802603 h 4.802603 4.8026033 V 21.605206 24 H 7.197397 0.01301518 Z"
     id="path8" />
  <path
     style="fill:#1a1a1a;stroke-width:0.0260304"
     d="M 0.01301518,16.802603 V 9.6052061 H 2.3947939 4.7765727 v 4.8026029 4.802603 h 4.802603 4.8026033 V 21.605206 24 H 7.197397 0.01301518 Z"
     id="path9" />
  <path
     style="fill:#1a1a1a;stroke-width:0.0260304"
     d="m 16.802603,21.605206 v -2.394794 h 1.210412 1.210412 V 12.013015 4.8156182 H 12 4.7765727 V 6 7.1843818 H 2.3947939 0.01301518 V 3.5921909 0 H 12 23.986985 v 12 12 h -3.592191 -3.592191 z"
     id="path10" />
</svg>
