<?xml version="1.0" encoding="UTF-8" standalone="no"?>
<svg
   role="img"
   viewBox="0 0 24 24"
   version="1.1"
   id="svg1"
   sodipodi:docname="yaml.svg"
   inkscape:version="1.4 (e7c3feb1, 2024-10-09)"
   xmlns:inkscape="http://www.inkscape.org/namespaces/inkscape"
   xmlns:sodipodi="http://sodipodi.sourceforge.net/DTD/sodipodi-0.dtd"
   xmlns="http://www.w3.org/2000/svg"
   xmlns:svg="http://www.w3.org/2000/svg"
   xmlns:rdf="http://www.w3.org/1999/02/22-rdf-syntax-ns#"
   xmlns:cc="http://creativecommons.org/ns#"
   xmlns:dc="http://purl.org/dc/elements/1.1/">
  <defs
     id="defs1" />
  <sodipodi:namedview
     id="namedview1"
     pagecolor="#505050"
     bordercolor="#ffffff"
     borderopacity="1"
     inkscape:showpageshadow="0"
     inkscape:pageopacity="0"
     inkscape:pagecheckerboard="1"
     inkscape:deskcolor="#505050"
     inkscape:zoom="39.583333"
     inkscape:cx="11.987368"
     inkscape:cy="12"
     inkscape:window-width="2048"
     inkscape:window-height="1099"
     inkscape:window-x="0"
     inkscape:window-y="25"
     inkscape:window-maximized="0"
     inkscape:current-layer="svg1" />
  <title
     id="title1">YAML</title>
  <path
     d="m0 .97 4.111 6.453v4.09h2.638v-4.09L11.053.969H8.214L5.58 5.125 2.965.969Zm12.093.024-4.47 10.544h2.114l.97-2.345h4.775l.804 2.345h2.26L14.255.994Zm1.133 2.225 1.463 3.87h-3.096zm3.06 9.475v10.29H24v-2.199h-5.454v-8.091zm-12.175.002v10.335h2.217v-7.129l2.32 4.792h1.746l2.4-4.96v7.295h2.127V12.696h-2.904L9.44 17.37l-2.455-4.674Z"
     id="path1" />
  <path
     style="fill:#ffffff;stroke-width:0.0252632"
     d="m 4.1178947,17.860844 v -5.153893 l 1.431985,0.0065 1.4319851,0.0065 1.2206268,2.324211 c 0.6713447,1.278315 1.2282329,2.32421 1.2375292,2.32421 0.0093,0 0.5936042,-1.045895 1.2984622,-2.32421 l 1.28156,-2.324211 1.44261,-0.0065 1.44261,-0.0065 v 5.153891 5.153891 h -1.048421 -1.048421 v -3.637895 c 0,-2.000842 -0.0085,-3.63745 -0.01895,-3.636906 -0.01042,5.44e-4 -0.55539,1.111807 -1.211042,2.469474 l -1.192095,2.468485 H 9.5210185 8.6557003 L 7.5034131,18.297668 C 6.8696552,16.988544 6.3431752,15.909491 6.3334577,15.899773 c -0.00972,-0.0097 -0.017668,1.587174 -0.017668,3.548648 v 3.566316 H 5.2168421 4.1178947 Z"
     id="path2" />
  <path
     style="fill:#ffffff;stroke-width:0.0252632"
     d="m 16.294737,17.835789 v -5.128421 h 1.12421 1.124211 v 4.042106 4.042105 H 21.271579 24 v 1.086316 1.086316 h -3.852632 -3.852631 z"
     id="path3" />
  <path
     style="fill:#ffffff;stroke-width:0.0252632"
     d="m 7.6547368,11.509566 c 0,-0.006 0.9992333,-2.367963 2.2205185,-5.2487014 L 12.095774,1.0231579 h 1.078337 1.078337 l 2.132723,5.2406218 c 1.172998,2.8823422 2.132724,5.2442503 2.132724,5.2486843 0,0.0044 -0.501466,0.0051 -1.114369,0.0015 l -1.114369,-0.0066 -0.398087,-1.162105 -0.398088,-1.1621051 -2.397017,-0.00596 -2.397018,-0.00596 -0.482028,1.1680651 -0.4820284,1.168065 -1.0400769,0.0066 c -0.5720422,0.0036 -1.0400769,0.0016 -1.0400769,-0.0044 z M 14.703048,7.0926316 c -8.66e-4,-0.04968 -1.467329,-3.8681161 -1.482215,-3.8594496 -0.02156,0.012555 -1.589032,3.7080826 -1.615565,3.8089233 l -0.01496,0.056842 h 1.556423 c 0.856033,0 1.556373,-0.00284 1.556313,-0.00632 z"
     id="path4" />
  <path
     style="fill:#ffffff;stroke-width:0.0252632"
     d="M 4.1178947,9.4506303 V 7.4065235 L 2.1649424,4.3411566 C 1.0908187,2.6552046 0.17005921,1.2103295 0.11881028,1.1303228 L 0.02563041,0.98485618 1.496261,0.99137546 2.9668916,0.99789474 4.2622259,3.0567864 c 0.712434,1.1323904 1.303936,2.0617027 1.314449,2.0651382 0.010513,0.00344 0.609727,-0.9259076 1.3315864,-2.0652074 L 8.2207334,0.98526316 H 9.619226 c 1.112039,0 1.394619,0.006468 1.379579,0.0315789 -0.0104,0.017368 -0.971705,1.4611238 -2.1362275,3.2083453 L 6.7452632,7.4019537 V 9.4483453 11.494737 H 5.4315789 4.1178947 Z"
     id="path5" />
  <metadata
     id="metadata5">
    <rdf:RDF>
      <cc:Work
         rdf:about="">
        <dc:title>YAML</dc:title>
      </cc:Work>
    </rdf:RDF>
  </metadata>
</svg>
